<svg width="313" height="310" viewBox="0 0 313 310" fill="none" xmlns="http://www.w3.org/2000/svg">
<path d="M262.727 41.9787C262.727 41.9787 243.532 49.4358 220.498 32.1974C197.465 14.959 169.795 -7.70987 135.915 2.57996C102.034 12.8698 111.495 48.5438 94.1867 64.2329C76.8784 79.9219 55.6855 63.5912 26.4493 77.5353C-2.78682 91.4794 -3.46818 123.538 3.99553 141.802C11.4593 160.065 27.1464 169.111 25.5095 194.769C23.8727 220.427 6.62702 247.102 23.2618 265.303C39.8966 283.504 52.7642 277.643 93.9283 277.627C135.092 277.612 140.919 309.342 178.512 309.992C216.105 310.641 229.583 273.918 249.664 261.868C269.745 249.818 293.647 259.724 309.076 237.611C324.505 215.497 289.348 170.895 290.945 136.997C292.543 103.099 305.528 106.48 301.518 77.3944C295.707 35.3274 262.727 41.9787 262.727 41.9787Z" fill="#1DA1F2"/>
<path opacity="0.7" d="M262.727 41.9787C262.727 41.9787 243.532 49.4358 220.498 32.1974C197.465 14.959 169.795 -7.70987 135.915 2.57996C102.034 12.8698 111.495 48.5438 94.1867 64.2329C76.8784 79.9219 55.6855 63.5912 26.4493 77.5353C-2.78682 91.4794 -3.46818 123.538 3.99553 141.802C11.4593 160.065 27.1464 169.111 25.5095 194.769C23.8727 220.427 6.62702 247.102 23.2618 265.303C39.8966 283.504 52.7642 277.643 93.9283 277.627C135.092 277.612 140.919 309.342 178.512 309.992C216.105 310.641 229.583 273.918 249.664 261.868C269.745 249.818 293.647 259.724 309.076 237.611C324.505 215.497 289.348 170.895 290.945 136.997C292.543 103.099 305.528 106.48 301.518 77.3944C295.707 35.3274 262.727 41.9787 262.727 41.9787Z" fill="white"/>
<path opacity="0.6" d="M160.216 50.4766C98.8926 50.4766 49.0039 100.322 49.0039 161.591C49.0039 222.861 98.8926 272.706 160.216 272.706C221.539 272.706 271.427 222.861 271.427 161.591C271.427 100.322 221.539 50.4766 160.216 50.4766ZM222.126 78.9047C216.735 82.9245 210.964 86.41 204.896 89.3119C204.113 87.5043 203.259 85.728 202.382 84.0065C197.597 74.6166 192.075 67.089 186.029 61.5489C199.083 64.9178 211.347 70.8146 222.126 78.9047ZM160.216 264.881C147.144 264.881 134.637 254.489 124.973 235.607C124.189 234.042 123.406 232.407 122.662 230.748C146.792 221.347 173.576 221.347 197.707 230.748C196.923 232.407 196.195 234.035 195.357 235.607C185.794 254.505 173.287 264.881 160.216 264.881ZM160.216 215.889C146.356 215.895 132.619 218.485 119.71 223.526C113.021 205.708 109.403 184.213 109.403 161.575C109.403 138.938 113.021 117.435 119.717 99.6173C145.756 109.806 174.683 109.806 200.722 99.6173C207.41 117.435 211.028 138.93 211.028 161.568C211.028 184.205 207.41 205.7 200.722 223.518C187.813 218.48 174.075 215.898 160.216 215.904V215.889ZM160.216 99.453C147.38 99.4474 134.656 97.0594 122.693 92.4105C123.437 90.7595 124.205 89.1319 125.004 87.5591C134.637 68.6853 147.144 58.2859 160.247 58.2859C173.35 58.2859 185.826 68.6853 195.49 87.5591C196.273 89.1241 197.057 90.7595 197.84 92.4184C185.846 97.0853 173.087 99.4763 160.216 99.4687V99.453ZM118.041 83.9909C117.164 85.7124 116.334 87.4886 115.527 89.2962C109.458 86.3962 103.688 82.9105 98.2973 78.889C109.071 70.8072 121.327 64.9159 134.371 61.5489C128.348 67.089 122.827 74.6322 118.041 84.0065V83.9909ZM56.8357 161.591C56.8316 146.89 59.9743 132.358 66.0528 118.97C72.1313 105.582 81.0051 93.6476 92.0789 83.9674C98.4235 88.8823 105.282 93.0959 112.536 96.5343C105.44 115.314 101.571 137.897 101.571 161.591C101.571 185.285 105.416 207.868 112.536 226.648C105.28 230.083 98.4211 234.296 92.0789 239.215C81.0062 229.534 72.1333 217.599 66.0549 204.211C59.9765 190.823 56.8332 176.292 56.8357 161.591ZM98.3443 244.285C103.734 240.26 109.505 236.772 115.574 233.87C116.358 235.678 117.211 237.454 118.088 239.176C122.874 248.566 128.395 256.093 134.441 261.633C121.39 258.264 109.126 252.37 98.3443 244.285ZM202.429 239.176C203.306 237.454 204.136 235.678 204.943 233.87C211.011 236.772 216.782 240.258 222.173 244.277C211.389 252.369 199.119 258.266 186.061 261.633C192.083 256.093 197.605 248.55 202.39 239.176H202.429ZM228.407 239.176C222.061 234.262 215.199 230.051 207.943 226.617C215.038 207.837 218.907 185.254 218.907 161.56C218.907 137.866 215.07 115.283 207.943 96.503C215.178 93.0749 222.021 88.8745 228.352 83.9752C239.423 93.6566 248.294 105.59 254.372 118.976C260.451 132.362 263.595 146.892 263.595 161.591C263.595 176.29 260.451 190.82 254.372 204.206C248.294 217.592 239.423 229.526 228.352 239.207L228.407 239.176Z" fill="white"/>
<path d="M177.566 238.597C177.566 240.803 168.418 242.595 157.125 242.595C145.831 242.595 136.684 240.803 136.684 238.597C136.684 236.39 145.839 234.606 157.125 234.606C168.41 234.606 177.566 236.39 177.566 238.597Z" fill="#263238"/>
<path d="M194.45 258.574C206.968 258.574 217.116 256.587 217.116 254.137C217.116 251.687 206.968 249.7 194.45 249.7C181.933 249.7 171.785 251.687 171.785 254.137C171.785 256.587 181.933 258.574 194.45 258.574Z" fill="#263238"/>
<path d="M182.082 89.7266C182.082 89.7266 185.215 85.4542 192.702 86.1898C200.189 86.9253 202.507 92.5515 202.507 92.5515C206.823 92.0765 211.175 92.0241 215.5 92.395C223.199 92.974 228.031 97.4812 226.653 100.071C225.274 102.661 219.949 111.417 214.286 112.904C208.624 114.391 199.57 111.472 195.286 109.344C191.002 107.215 182.113 93.6313 182.113 93.6313L182.082 89.7266Z" fill="white" stroke="#263238" stroke-linecap="round" stroke-linejoin="round"/>
<path d="M202.859 103.804C202.859 103.804 208.255 102.45 212.579 104.07" stroke="#263238" stroke-linecap="round" stroke-linejoin="round"/>
<path d="M214.097 111.691C214.097 111.691 212.797 106.738 214.786 99.2808C216.775 91.8236 222.454 91.0255 226.487 93.2165C232.22 96.3465 232.752 103.037 232.752 103.037C232.752 103.037 221.569 99.4373 214.277 112.904" fill="#1DA1F2"/>
<path d="M214.097 111.691C214.097 111.691 212.797 106.738 214.786 99.2808C216.775 91.8236 222.454 91.0255 226.487 93.2165C232.22 96.3465 232.752 103.037 232.752 103.037C232.752 103.037 221.569 99.4373 214.277 112.904" stroke="#263238" stroke-linecap="round" stroke-linejoin="round"/>
<path d="M202.976 92.6061C203.368 97.2541 197.047 96.636 190.962 97.1446C184.877 97.6532 181.344 99.1008 180.953 94.445C180.561 89.7891 185.174 85.6106 191.26 85.102C197.345 84.5934 202.584 87.9503 202.976 92.6061Z" fill="#1DA1F2" stroke="#263238" stroke-linecap="round" stroke-linejoin="round"/>
<path d="M223.582 133.46C221.577 131.95 217.035 128.812 217.035 128.812C217.035 128.812 212.336 130.424 209.665 133.288C206.994 136.152 210.652 142.928 214.732 145.026C215.912 145.65 217.197 146.051 218.523 146.207C218.578 147.201 218.585 148.124 218.585 148.124C218.585 148.124 218.108 149.181 220.825 147.827C225.681 145.393 228.673 137.334 223.582 133.46Z" fill="white" stroke="#263238" stroke-linecap="round" stroke-linejoin="round"/>
<path d="M220.521 145.378C220.521 145.378 221.304 147.115 221.03 147.983C220.756 148.852 219.127 149.501 218.516 148.32C217.905 147.138 219.346 145.065 220.521 145.378Z" fill="#1DA1F2" stroke="#263238" stroke-linecap="round" stroke-linejoin="round"/>
<path d="M210.725 140.041C210.02 141.317 209.871 143.101 210.31 143.954C211.477 146.223 212.824 144.368 213.38 143.023C213.936 141.677 215.04 138.993 213.341 138.633C212.809 138.53 212.258 138.615 211.782 138.871C211.305 139.128 210.932 139.541 210.725 140.041Z" fill="white" stroke="#263238" stroke-linecap="round" stroke-linejoin="round"/>
<path d="M212.608 141.528C211.903 142.803 211.754 144.587 212.193 145.44C213.36 147.71 214.699 145.855 215.255 144.509C215.811 143.163 216.923 140.479 215.255 140.119C214.718 140.009 214.16 140.09 213.677 140.347C213.194 140.604 212.815 141.022 212.608 141.528Z" fill="white" stroke="#263238" stroke-linecap="round" stroke-linejoin="round"/>
<path d="M215.19 142.889C214.485 144.165 214.344 145.949 214.775 146.802C215.942 149.071 217.289 147.217 217.845 145.871C218.401 144.525 219.513 141.841 217.806 141.481C217.274 141.379 216.724 141.463 216.247 141.719C215.77 141.976 215.397 142.389 215.19 142.889Z" fill="white" stroke="#263238" stroke-linecap="round" stroke-linejoin="round"/>
<path d="M217.811 143.437C217.106 144.72 216.957 146.497 217.396 147.35C218.563 149.619 219.91 147.764 220.466 146.419C221.022 145.073 222.126 142.389 220.427 142.029C219.895 141.926 219.344 142.011 218.868 142.267C218.391 142.524 218.018 142.937 217.811 143.437Z" fill="white" stroke="#263238" stroke-linecap="round" stroke-linejoin="round"/>
<path d="M209.665 133.288C209.665 133.288 206.306 136.277 207.175 138.64C208.044 141.003 214.325 143.695 215.163 140.988C216.001 138.28 212.101 136.661 212.101 136.661L209.94 135.252" fill="white"/>
<path d="M209.665 133.288C209.665 133.288 206.306 136.277 207.175 138.64C208.044 141.003 214.325 143.695 215.163 140.988C216.001 138.28 212.101 136.661 212.101 136.661L209.94 135.252" stroke="#263238" stroke-linecap="round" stroke-linejoin="round"/>
<path d="M217.82 134.853C217.245 135.252 216.792 135.805 216.516 136.448C216.239 137.091 216.148 137.799 216.254 138.492C216.544 141.011 219.457 141.481 219.457 141.481" fill="white"/>
<path d="M217.82 134.853C217.245 135.252 216.792 135.805 216.516 136.448C216.239 137.091 216.148 137.799 216.254 138.492C216.544 141.011 219.457 141.481 219.457 141.481" stroke="#263238" stroke-linecap="round" stroke-linejoin="round"/>
<path d="M224.57 96.1431C222.27 96.6043 220.13 97.6587 218.363 99.2016C216.596 100.744 215.264 102.722 214.498 104.938C211.859 112.607 212.783 128.836 213.394 130.815C214.005 132.795 219.198 135.51 222.009 135.072C224.821 134.634 226.285 133.296 227.413 130.862C228.541 128.429 235.637 116.989 234.305 107.638C232.974 98.2871 231.635 96.8004 224.57 96.1431Z" fill="white" stroke="#263238" stroke-linecap="round" stroke-linejoin="round"/>
<path d="M230.782 99.899C230.782 99.899 233.359 106.488 232.215 112.787C231.072 119.086 225.621 130.831 225.621 130.831" stroke="#263238" stroke-linecap="round" stroke-linejoin="round"/>
<path d="M220.452 132.498C217.582 131.841 214.988 130.31 213.027 128.116C213.077 129.024 213.2 129.927 213.395 130.816C214.014 132.795 219.199 135.511 222.01 135.072C222.939 134.975 223.834 134.673 224.631 134.189C225.429 133.704 226.109 133.049 226.623 132.271C224.614 132.836 222.498 132.914 220.452 132.498Z" fill="#1DA1F2" stroke="#263238" stroke-linecap="round" stroke-linejoin="round"/>
<path d="M210.421 135.769C210.421 135.769 207.648 136.074 207.179 138.656C207.179 138.656 206.654 135.839 208.416 134.955C210.178 134.071 210.421 135.769 210.421 135.769Z" fill="#1DA1F2" stroke="#263238" stroke-linecap="round" stroke-linejoin="round"/>
<path d="M134.164 88.2555C134.164 88.2555 139.646 93.2009 138.754 95.3997C137.861 97.5985 137.101 98.334 138.017 99.0696C138.934 99.8051 141.322 99.6173 141.322 99.6173C141.322 99.6173 144.62 103.279 146.805 103.279C148.99 103.279 161.85 91.3698 162.03 89.7187C162.21 88.0677 160.017 85.5011 157.628 81.1113C155.239 76.7215 150.11 70.8528 145.52 72.8638C140.931 74.8748 134.164 88.2555 134.164 88.2555Z" fill="white" stroke="#263238" stroke-linecap="round" stroke-linejoin="round"/>
<path d="M137.645 90.0865C137.645 90.0865 137.645 87.1522 140.213 87.8877" stroke="#263238" stroke-linecap="round" stroke-linejoin="round"/>
<path d="M141.342 91.0021C141.75 91.5185 141.828 92.1367 141.515 92.3871C141.201 92.6375 140.606 92.434 140.191 91.9176C139.776 91.4011 139.705 90.783 140.019 90.5326C140.332 90.2822 140.927 90.4856 141.342 91.0021Z" fill="#263238"/>
<path d="M154.345 86.4166L152.145 87.8877C152.145 87.8877 153.789 93.2009 153.789 94.6641V98.1541" fill="white"/>
<path d="M154.345 86.4166L152.145 87.8877C152.145 87.8877 153.789 93.2009 153.789 94.6641V98.1541" stroke="#263238" stroke-linecap="round" stroke-linejoin="round"/>
<path d="M143.609 99.2886C143.609 99.2886 145.176 99.0617 145.426 96.3386L143.609 99.2886Z" fill="white"/>
<path d="M143.609 99.2886C143.609 99.2886 145.176 99.0617 145.426 96.3386" stroke="#263238" stroke-miterlimit="10"/>
<path d="M143.703 78.5369C143.703 78.5369 138.017 89.5388 132.879 90.8221C127.741 92.1054 124.624 88.0677 126.277 82.3868C127.929 76.7058 133.983 69.0061 137.1 70.1094C140.218 71.2127 138.753 73.9593 140.233 71.9404C141.713 69.9216 143.366 64.4285 150.689 64.6084C158.011 64.7884 158.575 71.2049 159.131 75.7903C159.687 80.3758 163.533 84.9534 162.985 86.2366C162.436 87.5199 159.852 88.9832 158.027 88.6233C156.202 88.2633 154.362 86.4166 154.362 86.4166C154.362 86.4166 154.73 78.9047 151.793 78.9047C148.856 78.9047 149.96 84.7734 149.96 84.7734C149.96 84.7734 149.772 83.4901 147.752 83.4901C145.731 83.4901 144.823 85.1412 143.718 84.4056C142.614 83.6701 143.703 78.5369 143.703 78.5369Z" fill="#263238" stroke="#263238" stroke-miterlimit="10"/>
<path d="M132.859 88.0755C134.352 87.7567 135.735 87.055 136.874 86.0397C138.012 85.0244 138.866 83.7304 139.352 82.285C140.973 77.3083 141.318 75.2425 146.534 73.5993C151.75 71.9561 153.434 74.6557 156.269 75.2191" stroke="white" stroke-width="0.5" stroke-linecap="round" stroke-linejoin="round"/>
<path d="M144.555 80.6653C144.555 80.6653 145.596 76.7528 149.301 76.1503C153.005 75.5477 155.214 79.2803 157.532 79.6246" stroke="white" stroke-width="0.5" stroke-linecap="round" stroke-linejoin="round"/>
<path d="M150.358 77.77C150.358 77.77 148.158 81.4712 147.116 82.7467C146.789 83.1219 146.376 83.4126 145.912 83.5938C145.449 83.775 144.948 83.8415 144.453 83.7874" stroke="white" stroke-width="0.5" stroke-linecap="round" stroke-linejoin="round"/>
<path d="M137.723 77.6527C137.723 77.6527 136.681 81.9407 132.28 82.6293C127.878 83.3179 132.045 75.9155 134.943 76.2598C137.84 76.6041 134.943 78.9281 134.48 79.1551" stroke="white" stroke-width="0.5" stroke-linecap="round" stroke-linejoin="round"/>
<path d="M143.152 106.949C143.152 106.949 165.528 94.6641 172.318 93.2009C179.108 91.7376 180.205 92.4653 181.677 91.7376C183.149 91.0099 177.088 85.1411 167.368 86.0567C157.649 86.9722 152.872 92.4653 149.018 97.0507C146.584 100.042 144.607 103.378 143.152 106.949Z" fill="#1DA1F2" stroke="#263238" stroke-linecap="round" stroke-linejoin="round"/>
<path d="M86.6744 98.115L92.2742 116.637L101.085 113.702L95.5009 95.2354C95.4626 95.1087 95.3993 94.9909 95.3148 94.889C95.2303 94.787 95.1263 94.703 95.0088 94.6418C94.8914 94.5805 94.7629 94.5434 94.6308 94.5324C94.4988 94.5215 94.3659 94.5371 94.24 94.5781L87.3167 96.8865C87.0706 96.9674 86.8658 97.141 86.7458 97.3704C86.6259 97.5999 86.6003 97.867 86.6744 98.115Z" fill="#263238" stroke="#263238" stroke-miterlimit="10"/>
<path d="M88.4442 99.5L92.6343 113.389L99.3148 111.159L95.1326 97.3247C95.0979 97.2079 95.04 97.0993 94.9625 97.0053C94.8849 96.9114 94.7891 96.834 94.681 96.7777C94.5728 96.7215 94.4544 96.6876 94.3329 96.6781C94.2113 96.6685 94.0891 96.6835 93.9735 96.7222L89.0238 98.3732C88.798 98.4468 88.6105 98.6064 88.5019 98.8175C88.3934 99.0285 88.3727 99.2738 88.4442 99.5Z" fill="white"/>
<path d="M99.5129 79.0689C95.55 76.8388 90.24 76.2911 85.306 77.59C80.372 78.889 75.9078 82.0581 73.6131 86.0097C73.4367 86.3127 73.3879 86.6733 73.4775 87.0123C73.567 87.3512 73.7877 87.6408 74.0908 87.8173C74.24 87.9065 74.4056 87.965 74.5778 87.9892C74.75 88.0134 74.9253 88.0028 75.0933 87.9581C75.4234 87.8632 75.704 87.6445 75.8765 87.3478C77.8501 83.983 81.6172 81.2991 85.956 80.1488C90.0415 78.9944 94.4131 79.4306 98.1893 81.3695C98.3409 81.4647 98.5103 81.5281 98.6871 81.556C98.864 81.5839 99.0447 81.5756 99.2183 81.5318C99.3918 81.4879 99.5547 81.4092 99.697 81.3006C99.8393 81.192 99.958 81.0557 100.046 80.9C100.134 80.7442 100.19 80.5722 100.209 80.3944C100.229 80.2165 100.212 80.0366 100.16 79.8654C100.108 79.6943 100.022 79.5354 99.9064 79.3985C99.7911 79.2616 99.6493 79.1495 99.4894 79.0689H99.5129Z" fill="#1DA1F2"/>
<path d="M96.999 83.6935C93.7481 82.2574 90.1036 81.9741 86.6695 82.8906C83.2354 83.8071 80.2177 85.8684 78.1165 88.7328C77.9185 89.021 77.842 89.3755 77.9036 89.7196C77.9651 90.0638 78.1598 90.3698 78.4455 90.5717C78.6037 90.6805 78.7834 90.7543 78.9725 90.788C79.1616 90.8218 79.3558 90.8147 79.5419 90.7673C79.8445 90.6866 80.1083 90.5007 80.2859 90.243C82.0279 87.8883 84.5189 86.1946 87.3506 85.4397C90.1823 84.6847 93.1866 84.9133 95.8712 86.088C96.189 86.2374 96.5532 86.2546 96.8837 86.1357C97.2142 86.0168 97.4838 85.7717 97.6334 85.4542C97.7829 85.1366 97.8001 84.7728 97.6812 84.4426C97.5622 84.1124 97.3168 83.843 96.999 83.6935Z" fill="#1DA1F2"/>
<path d="M94.4324 88.279C92.3686 87.3383 90.0386 87.1561 87.8534 87.7645C85.6682 88.373 83.7683 89.733 82.4889 91.6046C82.3321 91.8262 82.2473 92.0907 82.2461 92.3621C82.2449 92.6334 82.3272 92.8986 82.482 93.1216C82.6368 93.3447 82.8565 93.5147 83.1114 93.6087C83.3662 93.7026 83.6438 93.716 83.9065 93.6469C84.2022 93.565 84.4616 93.3858 84.6427 93.1383C85.5708 91.7614 86.9597 90.7601 88.5602 90.3141C90.1606 89.8681 91.8677 90.0066 93.3751 90.7048C93.6971 90.8448 94.0616 90.8514 94.3884 90.723C94.7152 90.5946 94.9775 90.3417 95.1177 90.0201C95.2579 89.6984 95.2645 89.3343 95.136 89.0077C95.0075 88.6812 94.7544 88.4191 94.4324 88.279Z" fill="#1DA1F2"/>
<path d="M149.463 225.075C147.978 226.342 146.305 227.371 144.505 228.127C142.218 228.909 139.743 226.217 137.644 228.909C135.546 231.601 135.358 235.005 138.976 237.102C142.594 239.199 145.649 240.529 148.319 240.146C150.99 239.762 154.585 238.816 157.271 239.575C159.957 240.334 164.703 242.047 167.186 240.529C169.669 239.011 170.045 235.576 169.473 233.487C168.901 231.397 166.99 224.347 166.99 224.347C166.99 224.347 152.893 227.555 149.463 225.075Z" fill="#1DA1F2" stroke="#263238" stroke-linecap="round" stroke-linejoin="round"/>
<path d="M164.917 237.65C160.915 238.792 158.816 236.507 156.529 236.507C154.242 236.507 150.812 237.837 145.479 236.695C142.174 235.835 139.029 234.448 136.167 232.587C136.112 234.254 136.95 235.881 138.994 237.078C142.62 239.168 145.667 240.506 148.337 240.122C151.008 239.739 154.603 238.792 157.289 239.551C159.975 240.31 164.721 242.024 167.204 240.506C169.319 239.199 169.906 236.507 169.671 234.449C168.466 235.992 166.801 237.113 164.917 237.65Z" fill="white" stroke="#263238" stroke-linecap="round" stroke-linejoin="round"/>
<path d="M198.634 165.097C198.634 165.097 193.488 177.476 187.771 183C182.054 188.525 168.708 194.229 168.708 194.229C168.708 194.229 169.852 220.317 168.904 223.557C167.956 226.797 160.328 227.743 159.561 229.817C158.793 231.891 159.561 236.077 157.658 237.642C155.754 239.207 153.084 239.16 152.324 236.687C151.564 234.215 152.512 230.02 150.985 227.736C149.458 225.451 149.653 226.953 148.126 223.737C146.599 220.521 146.035 206.788 146.035 199.174C146.035 191.561 148.322 185.089 150.225 180.512C152.128 175.934 157.47 170.418 162.419 168.516C167.369 166.615 198.634 165.097 198.634 165.097Z" fill="#1DA1F2" stroke="#263238" stroke-linecap="round" stroke-linejoin="round"/>
<path opacity="0.5" d="M198.634 165.097C198.634 165.097 193.488 177.476 187.771 183C182.054 188.525 168.708 194.229 168.708 194.229C168.708 194.229 169.852 220.317 168.904 223.557C167.956 226.797 160.328 227.743 159.561 229.817C158.793 231.891 159.561 236.077 157.658 237.642C155.754 239.207 153.084 239.16 152.324 236.687C151.564 234.215 152.512 230.02 150.985 227.736C149.458 225.451 149.653 226.953 148.126 223.737C146.599 220.521 146.035 206.788 146.035 199.174C146.035 191.561 148.322 185.089 150.225 180.512C152.128 175.934 157.47 170.418 162.419 168.516C167.369 166.615 198.634 165.097 198.634 165.097Z" fill="white" stroke="#263238" stroke-miterlimit="10"/>
<path d="M147.747 162.812C147.747 162.812 144.317 183.157 146.964 195.371C149.611 207.586 153.637 216.89 157.827 218.416C162.017 219.942 174.978 208.51 174.978 204.511C174.978 200.512 174.407 190.997 174.79 183C175.174 175.003 175.573 173.853 175.573 173.853L147.747 162.812Z" fill="white" stroke="#263238" stroke-linecap="round" stroke-linejoin="round"/>
<path d="M175.954 204.135C175.954 204.135 174.998 200.325 167.949 200.137C160.901 199.949 157.471 208.322 156.515 212.704C155.56 217.086 157.471 222.031 160.901 222.415C164.331 222.798 177.097 213.463 175.954 204.135Z" fill="#1DA1F2" stroke="#263238" stroke-linecap="round" stroke-linejoin="round"/>
<path d="M148.527 150.049C148.527 150.049 147.078 161.481 147.885 165.824C148.692 170.167 161.418 178.063 172.054 178.063C182.69 178.063 193.803 174.033 198.8 166.466C203.796 158.899 199.285 148.602 199.285 148.602C199.285 148.602 185.587 153.75 173.503 154.079C161.418 154.408 148.527 150.049 148.527 150.049Z" fill="#1DA1F2" stroke="#263238" stroke-linecap="round" stroke-linejoin="round"/>
<path d="M105.912 124.728C105.912 124.728 106.28 119.595 104.447 117.028C102.614 114.461 99.8577 111.715 99.8577 110.612C99.8577 109.508 102.614 106.214 100.594 105.298C98.5733 104.383 96.5605 106.034 96.0044 108.428C95.4484 110.823 96.1924 114.477 96.1924 114.477C95.6879 114.643 95.1559 114.71 94.626 114.673C93.5139 114.673 89.8251 112.912 88.5799 112.912C87.3346 112.912 85.3218 114.673 86.152 116.621C86.9822 118.57 88.4311 119.313 88.4311 119.868C88.4311 120.424 86.434 122.169 87.131 123.421C87.5713 124.198 88.1316 124.9 88.7913 125.502C88.7913 125.502 88.1021 127.443 88.3763 128.413C88.6504 129.384 90.1854 130.354 90.1854 130.354C90.1854 130.354 89.9035 131.324 92.535 132.435C95.1664 133.547 99.8969 133.273 101.15 132.021C102.403 130.769 105.912 124.728 105.912 124.728Z" fill="white" stroke="#263238" stroke-linecap="round" stroke-linejoin="round"/>
<path d="M104.994 123.077C104.994 123.077 103.428 120.346 100.765 122.012C99.4994 122.804 98.4955 123.95 97.8785 125.309C97.2614 126.667 97.0586 128.177 97.2954 129.65C97.4635 130.457 97.8309 131.211 98.3643 131.841C98.8977 132.471 99.5802 132.957 100.35 133.257L104.994 123.077Z" fill="#1DA1F2" stroke="#263238" stroke-linecap="round" stroke-linejoin="round"/>
<path d="M121.841 134.986C121.841 134.986 117.988 132.42 114.871 129.861C111.754 127.302 106.428 124.908 104.964 123.077C103.499 121.246 99.0977 124.728 99.0977 130.221C99.0977 135.714 104.227 146.168 107.713 148.915C111.198 151.661 114.503 152.952 115.787 152.952C117.072 152.952 118.137 149.102 118.92 145.433C119.703 141.763 121.841 134.986 121.841 134.986Z" fill="white" stroke="#263238" stroke-linecap="round" stroke-linejoin="round"/>
<path d="M102.918 123.671C102.918 123.671 112.951 130.831 115.245 135.127" stroke="#263238" stroke-linecap="round" stroke-linejoin="round"/>
<path d="M120.221 134.806C120.221 134.806 113.799 138.288 112.335 145.432C110.87 152.577 115.272 155.519 119.305 156.067C123.628 156.653 131.225 150.018 131.225 150.018C131.225 150.018 118.757 151.481 120.221 134.806Z" fill="#1DA1F2" stroke="#263238" stroke-linecap="round" stroke-linejoin="round"/>
<path d="M143.151 106.949C143.151 106.949 132.507 110.611 128.106 116.66C123.704 122.709 124.621 130.041 124.621 130.041C121.118 132.968 118.564 136.867 117.282 141.246C115.27 148.39 116.922 152.24 126.641 152.788C136.361 153.336 146.268 136.293 146.268 136.293C146.268 136.293 147.184 146.927 148.469 151.325C149.753 155.722 152.322 157.186 159.112 158.469C165.902 159.752 176.17 159.384 187.73 157.186C199.289 154.987 199.65 149.861 200.386 144.728C201.122 139.595 203.996 123.077 198.561 106.386C195.044 95.5797 184.973 91.9568 181.676 91.7768C178.378 91.5968 158.196 95.032 143.151 106.949Z" fill="white" stroke="#263238" stroke-linecap="round" stroke-linejoin="round"/>
<path d="M136.018 139.689C143.501 139.689 149.567 133.302 149.567 125.424C149.567 117.546 143.501 111.159 136.018 111.159C128.535 111.159 122.469 117.546 122.469 125.424C122.469 133.302 128.535 139.689 136.018 139.689Z" fill="#1DA1F2" stroke="#263238" stroke-linecap="round" stroke-linejoin="round"/>
<path d="M145.335 131.966C144.355 133.555 142.987 134.87 141.36 135.787C139.733 136.704 137.899 137.193 136.031 137.209C135.048 137.209 134.071 137.074 133.125 136.809" stroke="#263238" stroke-linecap="round" stroke-linejoin="round"/>
<path d="M147.196 125.424C147.196 126.596 147.033 127.763 146.711 128.891" stroke="#263238" stroke-linecap="round" stroke-linejoin="round"/>
<path d="M99.859 110.611C99.9253 110.187 100.069 109.779 100.282 109.406C98.9023 109.066 97.4445 109.267 96.2094 109.97C96.0681 110.063 95.9346 110.168 95.8099 110.283C95.7996 111.156 95.8493 112.03 95.9587 112.896C95.98 112.844 95.9932 112.788 95.9979 112.732C96.0496 112.417 96.1652 112.115 96.3376 111.846C96.5099 111.577 96.7355 111.346 97.0004 111.167C97.8878 110.7 98.9141 110.57 99.8903 110.799C99.8734 110.738 99.8629 110.675 99.859 110.611Z" fill="#1DA1F2" stroke="#263238" stroke-linecap="round" stroke-linejoin="round"/>
<path d="M92.3244 131.934C91.7001 131.408 91.286 130.675 91.1575 129.869C91.1286 129.713 91.0532 129.57 90.9414 129.459C90.8295 129.347 90.6864 129.271 90.531 129.243C90.531 129.243 89.9279 129.125 89.411 128.038C89.2619 127.636 89.2015 127.207 89.2339 126.781C89.2663 126.354 89.3909 125.939 89.599 125.565C89.6944 125.4 89.7216 125.205 89.6747 125.021C89.6279 124.837 89.5107 124.678 89.3484 124.579C88.9333 124.328 87.8681 123.468 87.8681 122.49C87.8964 122.121 88.0166 121.765 88.2177 121.455C88.4188 121.145 88.6944 120.89 89.0194 120.713C89.1384 120.651 89.2375 120.556 89.3053 120.439C89.3732 120.323 89.4071 120.19 89.4032 120.056C89.4032 120.056 89.3562 117.317 90.3195 115.768C91.181 114.391 92.0268 114.203 92.0895 114.203C92.2108 114.18 92.3242 114.126 92.4184 114.046L90.5545 113.381C89.9715 113.828 89.4774 114.38 89.0977 115.009C88.4177 116.281 88.0398 117.692 87.9934 119.133C88.2676 119.43 88.4634 119.657 88.4634 119.86C88.4634 120.416 86.4662 122.161 87.1633 123.413C87.6035 124.19 88.1639 124.892 88.8236 125.494C88.8236 125.494 88.1344 127.435 88.4085 128.405C88.6826 129.376 90.2177 130.346 90.2177 130.346C90.2177 130.346 89.9357 131.316 92.5672 132.427C92.9357 132.579 93.3154 132.702 93.7028 132.795C93.2274 132.535 92.7671 132.247 92.3244 131.934Z" fill="#1DA1F2" stroke="#263238" stroke-linecap="round" stroke-linejoin="round"/>
<path d="M130.452 139.415L124.773 145.08" stroke="#263238" stroke-linecap="round" stroke-linejoin="round"/>
<path d="M122.924 146.974L118.875 149.674" stroke="#263238" stroke-linecap="round" stroke-linejoin="round"/>
<path d="M205.107 232.697C205.107 232.697 206.634 234.598 205.107 238.221C203.58 241.844 198.442 248.691 193.892 250.796C189.883 252.572 185.648 253.789 181.306 254.411C177.688 254.982 172.73 254.027 172.73 254.027C172.73 254.027 181.502 252.509 185.12 248.511C188.739 244.512 191.221 236.132 196.751 232.133C202.28 228.135 205.107 232.697 205.107 232.697Z" fill="#263238" stroke="#263238" stroke-miterlimit="10"/>
<path d="M179.569 238.792C178.506 239.112 177.426 239.373 176.334 239.575C172.904 240.357 169.849 241.672 169.474 246.242C169.098 250.811 170.045 253.668 172.708 254.067C175.371 254.466 181.48 255.021 186.805 252.165C192.131 249.309 197.096 239.41 199.767 236.359C202.438 233.307 205.1 232.744 205.1 232.744C204.842 231.167 204.113 229.705 203.009 228.549C201.055 226.193 198.814 224.09 196.337 222.289C192.906 219.817 186.617 219.246 183.947 223.072C181.276 226.898 182.615 231.257 182.615 233.925C182.615 236.593 179.569 238.792 179.569 238.792Z" fill="#1DA1F2" stroke="#263238" stroke-linecap="round" stroke-linejoin="round"/>
<path d="M203.497 229.082C201.609 229.152 199.283 229.966 196.73 232.884C192.72 237.454 191.961 245.076 183.956 249.074C179.591 251.146 174.755 252.032 169.938 251.641C170.127 252.256 170.489 252.803 170.981 253.219C171.472 253.635 172.072 253.902 172.71 253.988C175.381 254.372 181.482 254.943 186.807 252.087C192.133 249.231 197.098 239.332 199.769 236.281C202.44 233.229 205.102 232.665 205.102 232.665C204.888 231.352 204.334 230.117 203.497 229.082Z" fill="white" stroke="#263238" stroke-linecap="round" stroke-linejoin="round"/>
<path d="M199.205 224.699C199.205 224.699 200.161 223.557 197.874 220.889C195.587 218.22 179.195 204.323 175.381 203.369C171.567 202.414 164.134 204.894 160.5 211.561C156.866 218.228 159.717 223.361 162.403 227.556C165.09 231.75 180.323 241.077 183.941 243.362C187.559 245.647 189.274 242.22 189.274 238.792C189.274 235.365 184.325 230.412 186.416 226.601C188.507 222.79 192.517 221.46 195.031 222.219C196.585 222.734 198.01 223.581 199.205 224.699Z" fill="white" stroke="#263238" stroke-linecap="round" stroke-linejoin="round"/>
<path d="M154.969 138.515C154.969 138.515 159.276 151.872 163.357 155.041C167.437 158.211 170.405 158.218 170.405 158.218L172.606 164.596C172.744 165.007 172.971 165.382 173.272 165.695C173.572 166.008 173.939 166.25 174.345 166.403C175.488 166.826 177.72 166.474 180.782 165.621C184.91 164.51 185.795 162.835 186.139 161.575C186.269 161.088 186.269 160.576 186.139 160.089L182.223 145.503L154.969 138.515Z" fill="#1DA1F2" stroke="#263238" stroke-miterlimit="10"/>
<path d="M186.12 161.591C186.249 161.104 186.249 160.592 186.12 160.104L184.812 155.237C182.324 154.553 179.694 154.582 177.222 155.321C174.749 156.06 172.535 157.479 170.832 159.416L172.61 164.58C172.748 164.991 172.975 165.367 173.276 165.679C173.576 165.992 173.943 166.234 174.349 166.388C175.492 166.81 177.724 166.458 180.786 165.605C184.89 164.541 185.775 162.867 186.12 161.591Z" fill="#1DA1F2" stroke="#263238" stroke-miterlimit="10"/>
<path d="M186.257 161.302C186.711 162.702 184.189 164.776 180.618 165.942C177.047 167.108 173.789 166.912 173.334 165.519C172.88 164.126 175.394 162.037 178.965 160.879C182.537 159.721 185.803 159.901 186.257 161.302Z" fill="#263238" stroke="#263238" stroke-miterlimit="10"/>
<path d="M172.27 158.438L173.938 163.312" stroke="#263238" stroke-width="0.5" stroke-miterlimit="10"/>
<path d="M174.582 156.646L176.509 161.904" stroke="#263238" stroke-width="0.5" stroke-miterlimit="10"/>
<path d="M178.039 155.495L179.707 160.746" stroke="#263238" stroke-width="0.5" stroke-miterlimit="10"/>
<path d="M182.02 155.112L183.429 159.854" stroke="#263238" stroke-width="0.5" stroke-miterlimit="10"/>
<path d="M204.505 124.149C204.505 124.149 207.966 137.756 206.196 142.608C204.426 147.459 201.928 149.024 201.928 149.024L203.494 155.589C203.596 156.012 203.602 156.451 203.513 156.876C203.424 157.301 203.241 157.701 202.977 158.046C202.233 159.017 200.158 159.901 197.127 160.832C193.039 162.084 191.402 161.129 190.439 160.245C190.071 159.896 189.801 159.456 189.656 158.97L185.199 144.533L204.505 124.149Z" fill="#1DA1F2" stroke="#263238" stroke-miterlimit="10"/>
<path d="M190.412 160.245C190.044 159.896 189.774 159.456 189.629 158.97L188.148 154.157C189.893 152.248 192.14 150.867 194.634 150.175C197.127 149.483 199.765 149.508 202.246 150.245L203.491 155.566C203.593 155.988 203.599 156.428 203.51 156.853C203.42 157.278 203.237 157.677 202.974 158.023C202.23 158.993 200.155 159.877 197.124 160.809C193.012 162.084 191.375 161.129 190.412 160.245Z" fill="#1DA1F2" stroke="#263238" stroke-miterlimit="10"/>
<path d="M190.126 160.065C190.479 161.489 193.721 161.912 197.363 160.996C201.005 160.081 203.675 158.195 203.315 156.771C202.955 155.347 199.72 154.924 196.078 155.832C192.437 156.74 189.766 158.633 190.126 160.065Z" fill="#263238" stroke="#263238" stroke-miterlimit="10"/>
<path d="M200.457 150.214L201.632 155.222" stroke="#263238" stroke-width="0.5" stroke-miterlimit="10"/>
<path d="M197.543 149.916L198.71 155.394" stroke="#263238" stroke-width="0.5" stroke-miterlimit="10"/>
<path d="M193.996 150.777L195.382 156.113" stroke="#263238" stroke-width="0.5" stroke-miterlimit="10"/>
<path d="M190.422 152.569L191.745 157.334" stroke="#263238" stroke-width="0.5" stroke-miterlimit="10"/>
<path d="M177.909 150.644C194.372 150.644 207.717 137.391 207.717 121.042C207.717 104.693 194.372 91.4403 177.909 91.4403C161.447 91.4403 148.102 104.693 148.102 121.042C148.102 137.391 161.447 150.644 177.909 150.644Z" fill="#1DA1F2" stroke="#263238" stroke-miterlimit="10"/>
<path d="M181.942 144.444C196.767 143.343 207.945 131.152 206.909 117.215C205.872 103.277 193.013 92.8706 178.188 93.9714C163.362 95.0721 152.184 107.263 153.221 121.201C154.257 135.138 167.116 145.545 181.942 144.444Z" fill="#263238" stroke="#263238" stroke-miterlimit="10"/>
<path d="M156.945 110.932C158.389 107.476 160.633 104.41 163.493 101.988" stroke="white" stroke-width="0.5" stroke-linecap="round" stroke-linejoin="round"/>
<path d="M155.758 124.094C155.544 123.088 155.398 122.068 155.32 121.042C155.162 118.946 155.305 116.838 155.743 114.782" stroke="white" stroke-width="0.5" stroke-linecap="round" stroke-linejoin="round"/>
<path d="M198.373 105.377C192.601 101.84 184.73 100.721 177.305 102.38C169.881 104.038 163.098 108.507 159.433 114.25C159.283 114.468 159.179 114.713 159.126 114.972C159.073 115.231 159.073 115.498 159.125 115.757C159.177 116.016 159.281 116.262 159.43 116.48C159.58 116.698 159.771 116.884 159.994 117.027C160.216 117.169 160.465 117.266 160.726 117.31C160.987 117.355 161.254 117.347 161.511 117.286C161.769 117.226 162.011 117.114 162.225 116.958C162.438 116.803 162.618 116.605 162.754 116.378C165.886 111.488 171.643 107.693 178.175 106.206C184.706 104.719 191.403 105.697 196.313 108.71C196.534 108.856 196.782 108.956 197.042 109.004C197.302 109.053 197.569 109.048 197.828 108.991C198.086 108.934 198.331 108.826 198.546 108.673C198.762 108.519 198.945 108.324 199.083 108.099C199.222 107.874 199.314 107.623 199.354 107.362C199.394 107.1 199.38 106.834 199.315 106.577C199.249 106.321 199.133 106.081 198.972 105.87C198.812 105.66 198.611 105.484 198.381 105.353L198.373 105.377Z" fill="white"/>
<path d="M194.367 112.122C189.61 109.798 184.201 109.169 179.038 110.339C173.874 111.509 169.265 114.407 165.977 118.554C165.821 118.76 165.707 118.994 165.642 119.244C165.576 119.494 165.561 119.755 165.597 120.011C165.633 120.266 165.718 120.513 165.849 120.735C165.98 120.958 166.154 121.153 166.361 121.308C166.567 121.464 166.803 121.578 167.054 121.644C167.305 121.709 167.566 121.724 167.822 121.689C168.079 121.653 168.326 121.567 168.55 121.436C168.773 121.305 168.969 121.131 169.125 120.925C171.851 117.518 175.655 115.137 179.912 114.173C184.17 113.209 188.629 113.719 192.558 115.619C192.789 115.738 193.04 115.81 193.298 115.832C193.557 115.853 193.817 115.824 194.064 115.745C194.31 115.666 194.539 115.54 194.737 115.372C194.935 115.205 195.098 115.001 195.217 114.77C195.336 114.54 195.408 114.289 195.43 114.031C195.451 113.773 195.422 113.513 195.343 113.266C195.264 113.02 195.137 112.791 194.97 112.593C194.802 112.395 194.598 112.233 194.367 112.114V112.122Z" fill="white"/>
<path d="M190.309 118.812C187.289 117.295 183.83 116.891 180.542 117.673C177.254 118.455 174.347 120.371 172.335 123.084C172.086 123.406 171.942 123.796 171.924 124.201C171.905 124.607 172.013 125.009 172.231 125.351C172.45 125.694 172.769 125.96 173.145 126.115C173.521 126.269 173.935 126.304 174.332 126.214C174.782 126.117 175.182 125.861 175.46 125.494C176.922 123.502 179.046 122.093 181.451 121.52C183.857 120.947 186.388 121.246 188.594 122.364C189.059 122.557 189.58 122.564 190.051 122.385C190.522 122.206 190.906 121.854 191.125 121.401C191.345 120.948 191.382 120.428 191.23 119.948C191.079 119.468 190.749 119.065 190.309 118.82V118.812Z" fill="white"/>
<path d="M187.259 131.586C188.671 129.39 188.035 126.466 185.837 125.054C183.639 123.643 180.712 124.279 179.3 126.475C177.887 128.671 178.524 131.595 180.722 133.006C182.919 134.417 185.846 133.781 187.259 131.586Z" fill="white"/>
<path d="M152.66 172.89C152.019 177.599 151.861 182.36 152.191 187.101" stroke="#263238" stroke-linecap="round" stroke-linejoin="round"/>
<path d="M152.66 189.667C152.713 192.193 153.103 194.701 153.819 197.124" stroke="#263238" stroke-linecap="round" stroke-linejoin="round"/>
<path d="M160.348 214.605C160.348 214.605 161.985 218.565 169.448 225.325C176.912 232.086 186.247 239.543 186.247 239.543" stroke="#263238" stroke-linecap="round" stroke-linejoin="round"/>
<path d="M152.663 157.968C152.663 157.968 151.263 164.729 152.428 168.227" stroke="#263238" stroke-linecap="round" stroke-linejoin="round"/>
</svg>
