<svg width="24" height="24" viewBox="0 0 24 24" fill="none" xmlns="http://www.w3.org/2000/svg">
<path d="M17.2498 15.3862C17.2498 11.925 14.4148 11.5305 12.137 11.214C9.65451 10.869 8.24976 10.569 8.24976 8.4315C8.24976 6.6375 10.13 6 11.7403 6C12.5427 5.97408 13.3399 6.13927 14.0659 6.48196C14.5605 6.71541 15.0125 7.02666 15.4053 7.40242C15.7086 7.69257 16.185 7.75406 16.5116 7.49041C16.829 7.23423 16.8856 6.76745 16.6005 6.47584C16.176 6.04179 15.6919 5.66859 15.1617 5.36798C14.418 4.94632 13.5983 4.67581 12.7498 4.572V3C12.7498 2.58579 12.414 2.25 11.9998 2.25C11.5855 2.25 11.2498 2.58579 11.2498 3V4.5165C8.53851 4.6815 6.74976 6.2115 6.74976 8.4315C6.74976 11.979 9.62226 12.3787 11.93 12.699C14.3698 13.0387 15.7498 13.3305 15.7498 15.3862C15.7498 17.6602 13.4 18 11.9998 18C9.84708 18 8.73531 17.4937 7.83911 16.5972C7.54195 16.2999 7.06817 16.243 6.7411 16.507C6.42088 16.7655 6.36087 17.2355 6.64614 17.5321C7.15415 18.0604 7.7514 18.4977 8.41226 18.8231C9.29468 19.2575 10.2662 19.4803 11.2498 19.4738V21C11.2498 21.4142 11.5855 21.75 11.9998 21.75C12.414 21.75 12.7498 21.4142 12.7498 21V19.4662C15.5443 19.2382 17.2498 17.721 17.2498 15.3862Z" fill="#7F92A0"/>
</svg>
