<svg width="39" height="10" viewBox="0 0 39 10" fill="none" xmlns="http://www.w3.org/2000/svg">
<path fill-rule="evenodd" clip-rule="evenodd" d="M8.66064 4.89259C8.66064 5.78492 8.54932 6.54815 8.32666 7.18231C8.104 7.81646 7.78438 8.33406 7.36779 8.73511C6.9512 9.13615 6.44484 9.43067 5.84868 9.61866C5.25253 9.80665 4.54266 9.90064 3.71906 9.90064H1.49966C1.34164 9.90064 1.20877 9.85176 1.10103 9.75401C0.993291 9.65625 0.939423 9.49709 0.939423 9.27652V0.794414C0.939423 0.573839 0.993291 0.414675 1.10103 0.31692C1.20877 0.219165 1.34164 0.170288 1.49966 0.170288H3.88426C4.71265 0.170288 5.41533 0.271802 5.99233 0.474832C6.56933 0.677862 7.05535 0.978642 7.45039 1.37718C7.84543 1.77572 8.1459 2.26825 8.3518 2.85478C8.5577 3.44131 8.66064 4.12058 8.66064 4.89259ZM6.70704 4.96006C6.70704 4.49886 6.65556 4.07024 6.55261 3.67421C6.44966 3.27818 6.28447 2.93479 6.05702 2.64403C5.82957 2.35327 5.53748 2.12643 5.18075 1.9635C4.82402 1.80058 4.35596 1.71912 3.77657 1.71912H2.82129V8.33636H3.8053C4.32244 8.33636 4.75818 8.26618 5.11252 8.12581C5.46686 7.98544 5.76253 7.77364 5.99956 7.4904C6.23658 7.20717 6.41375 6.855 6.53107 6.4339C6.64838 6.0128 6.70704 5.52153 6.70704 4.96006ZM19.9945 9.39666C19.9658 9.51697 19.9263 9.61347 19.876 9.68616C19.8257 9.75885 19.7503 9.814 19.6497 9.85159C19.5492 9.88919 19.4199 9.91426 19.2619 9.92679C19.1039 9.93932 18.9028 9.94559 18.6585 9.94559C18.3856 9.94559 18.1665 9.93932 18.0013 9.92679C17.8361 9.91426 17.7057 9.88919 17.6099 9.85159C17.5141 9.814 17.4447 9.75885 17.4016 9.68616C17.3585 9.61347 17.325 9.51697 17.301 9.39666L15.8143 3.23059H15.7999L14.3921 9.39666C14.3682 9.51196 14.3347 9.60595 14.2916 9.67864C14.2485 9.75133 14.1802 9.80773 14.0869 9.84783C13.9935 9.88794 13.8666 9.91426 13.7062 9.92679C13.5458 9.93932 13.3339 9.94559 13.0705 9.94559C12.7928 9.94559 12.5713 9.93932 12.4061 9.92679C12.241 9.91426 12.1105 9.88919 12.0147 9.85159C11.9189 9.814 11.8495 9.75885 11.8064 9.68616C11.7633 9.61347 11.7274 9.51697 11.6987 9.39666L9.58701 0.907038C9.54391 0.726566 9.51997 0.584949 9.51518 0.482181C9.51039 0.379412 9.53792 0.300457 9.59778 0.245313C9.65763 0.19017 9.75579 0.156332 9.89226 0.143799C10.0287 0.131266 10.2191 0.125 10.4633 0.125C10.6883 0.125 10.8667 0.12876 10.9984 0.136279C11.1301 0.143799 11.2294 0.161345 11.2964 0.188917C11.3635 0.216489 11.409 0.256593 11.4329 0.30923C11.4569 0.361867 11.476 0.435809 11.4904 0.531058L13.1208 7.98297H13.128L14.8231 0.583695C14.8422 0.488447 14.8674 0.410745 14.8985 0.350588C14.9296 0.290431 14.9823 0.24406 15.0565 0.211475C15.1307 0.17889 15.2325 0.156332 15.3618 0.143799C15.491 0.131266 15.6634 0.125 15.8789 0.125C16.1087 0.125 16.2919 0.130013 16.4284 0.140039C16.5648 0.150065 16.6702 0.171371 16.7444 0.203956C16.8186 0.236541 16.8725 0.282911 16.906 0.343068C16.9395 0.403225 16.9659 0.483433 16.985 0.583695L18.7376 7.98297H18.7519L20.3824 0.553617C20.3967 0.473407 20.4159 0.404478 20.4398 0.346828C20.4638 0.289177 20.5092 0.24406 20.5763 0.211475C20.6433 0.17889 20.7391 0.156332 20.8636 0.143799C20.9881 0.131266 21.1629 0.125 21.3879 0.125C21.5986 0.125 21.7626 0.131266 21.8799 0.143799C21.9972 0.156332 22.0822 0.19017 22.1349 0.245313C22.1876 0.300457 22.2103 0.381919 22.2031 0.4897C22.1959 0.597482 22.1708 0.744112 22.1277 0.929596L19.9945 9.39666ZM29.052 9.12612C29.052 9.2715 29.046 9.39307 29.034 9.49082C29.022 9.58858 29.0041 9.66753 28.9801 9.72769C28.9562 9.78785 28.9263 9.83171 28.8904 9.85928C28.8545 9.88686 28.8149 9.90064 28.7719 9.90064H24.1032C23.9452 9.90064 23.8123 9.85176 23.7046 9.75401C23.5968 9.65625 23.543 9.49709 23.543 9.27652V0.794414C23.543 0.573839 23.5968 0.414675 23.7046 0.31692C23.8123 0.219165 23.9452 0.170288 24.1032 0.170288H28.7431C28.7862 0.170288 28.8245 0.182821 28.858 0.207886C28.8916 0.232951 28.9203 0.276815 28.9442 0.339479C28.9682 0.402143 28.9861 0.482351 28.9981 0.580106C29.0101 0.677861 29.0161 0.801933 29.0161 0.952326C29.0161 1.09269 29.0101 1.21175 28.9981 1.30951C28.9861 1.40726 28.9682 1.48622 28.9442 1.54637C28.9203 1.60653 28.8916 1.65039 28.858 1.67797C28.8245 1.70554 28.7862 1.71932 28.7431 1.71932H25.4248V4.09552H28.2332C28.2763 4.09552 28.3158 4.1093 28.3517 4.13687C28.3876 4.16445 28.4175 4.20706 28.4415 4.26471C28.4654 4.32236 28.4834 4.40006 28.4953 4.49781C28.5073 4.59557 28.5133 4.71463 28.5133 4.85499C28.5133 5.00037 28.5073 5.12069 28.4953 5.21594C28.4834 5.31118 28.4654 5.38763 28.4415 5.44528C28.4175 5.50293 28.3876 5.54429 28.3517 5.56936C28.3158 5.59442 28.2763 5.60695 28.2332 5.60695H25.4248V8.35161H28.7719C28.8149 8.35161 28.8545 8.36539 28.8904 8.39296C28.9263 8.42054 28.9562 8.4644 28.9801 8.52456C29.0041 8.58471 29.022 8.66367 29.034 8.76142C29.046 8.85918 29.052 8.98074 29.052 9.12612ZM38.4395 4.89259C38.4395 5.78492 38.3282 6.54815 38.1055 7.18231C37.8828 7.81646 37.5632 8.33406 37.1466 8.73511C36.73 9.13615 36.2237 9.43067 35.6275 9.61866C35.0314 9.80665 34.3215 9.90064 33.4979 9.90064H31.2785C31.1205 9.90064 30.9876 9.85176 30.8799 9.75401C30.7721 9.65625 30.7183 9.49709 30.7183 9.27652V0.794414C30.7183 0.573839 30.7721 0.414675 30.8799 0.31692C30.9876 0.219165 31.1205 0.170288 31.2785 0.170288H33.6631C34.4915 0.170288 35.1942 0.271802 35.7712 0.474832C36.3482 0.677862 36.8342 0.978642 37.2292 1.37718C37.6243 1.77572 37.9247 2.26825 38.1306 2.85478C38.3365 3.44131 38.4395 4.12058 38.4395 4.89259ZM36.4858 4.96006C36.4858 4.49886 36.4343 4.07024 36.3313 3.67421C36.2284 3.27818 36.0632 2.93479 35.8357 2.64403C35.6083 2.35327 35.3162 2.12643 34.9595 1.9635C34.6027 1.80058 34.1347 1.71912 33.5553 1.71912H32.6V8.33636H33.584C34.1012 8.33636 34.5369 8.26618 34.8912 8.12581C35.2456 7.98544 35.5413 7.77364 35.7783 7.4904C36.0153 7.20717 36.1925 6.855 36.3098 6.4339C36.4271 6.0128 36.4858 5.52153 36.4858 4.96006Z" fill="#1DA1F2"/>
</svg>
