<svg width="16" height="16" viewBox="0 0 16 16" fill="none" xmlns="http://www.w3.org/2000/svg">
<path d="M14.6667 5.68016V2.6535C14.6667 1.7135 14.24 1.3335 13.18 1.3335H10.4867C9.42667 1.3335 9 1.7135 9 2.6535V5.6735C9 6.62016 9.42667 6.9935 10.4867 6.9935H13.18C14.24 7.00016 14.6667 6.62016 14.6667 5.68016Z" stroke="#262626" stroke-linecap="round" stroke-linejoin="round"/>
<path d="M14.6667 13.18V10.4867C14.6667 9.42667 14.24 9 13.18 9H10.4867C9.42667 9 9 9.42667 9 10.4867V13.18C9 14.24 9.42667 14.6667 10.4867 14.6667H13.18C14.24 14.6667 14.6667 14.24 14.6667 13.18Z" stroke="#262626" stroke-linecap="round" stroke-linejoin="round"/>
<path d="M6.99967 5.68016V2.6535C6.99967 1.7135 6.57301 1.3335 5.51301 1.3335H2.81967C1.75967 1.3335 1.33301 1.7135 1.33301 2.6535V5.6735C1.33301 6.62016 1.75967 6.9935 2.81967 6.9935H5.51301C6.57301 7.00016 6.99967 6.62016 6.99967 5.68016Z" stroke="#262626" stroke-linecap="round" stroke-linejoin="round"/>
<path d="M6.99967 13.18V10.4867C6.99967 9.42667 6.57301 9 5.51301 9H2.81967C1.75967 9 1.33301 9.42667 1.33301 10.4867V13.18C1.33301 14.24 1.75967 14.6667 2.81967 14.6667H5.51301C6.57301 14.6667 6.99967 14.24 6.99967 13.18Z" stroke="#262626" stroke-linecap="round" stroke-linejoin="round"/>
</svg>
