<svg width="24" height="24" viewBox="0 0 24 24" fill="none" xmlns="http://www.w3.org/2000/svg">
<path fill-rule="evenodd" clip-rule="evenodd" d="M12 3.50018C7.30621 3.50018 3.5 7.3064 3.5 12.0002C3.5 16.694 7.30621 20.5002 12 20.5002C16.6947 20.5002 20.5 16.694 20.5 12.0002C20.5 7.30634 16.6947 3.50018 12 3.50018ZM2 12.0002C2 6.47797 6.47779 2.00018 12 2.00018C17.5233 2.00018 22 6.47802 22 12.0002C22 17.5223 17.5233 22.0002 12 22.0002C6.47779 22.0002 2 17.5224 2 12.0002Z" fill="#7F92A0"/>
<path d="M10.6667 9.99994C10.6667 11.1039 10.0693 11.9999 9.33333 11.9999C8.59733 11.9999 8 11.1039 8 9.99994C8 8.89594 8.59733 7.99994 9.33333 7.99994C10.0693 7.99994 10.6667 8.89594 10.6667 9.99994ZM16 9.99994C16 11.1039 15.4027 11.9999 14.6667 11.9999C13.9307 11.9999 13.3333 11.1039 13.3333 9.99994C13.3333 8.89594 13.9307 7.99994 14.6667 7.99994C15.4027 7.99994 16 8.89594 16 9.99994Z" fill="#7F92A0"/>
<path fill-rule="evenodd" clip-rule="evenodd" d="M16.8834 14.5718C17.0887 14.9119 17.0158 15.3793 16.7204 15.6157C15.4652 16.6207 13.8106 17.2029 11.9996 17.2029C10.1884 17.2029 8.53474 16.6206 7.27957 15.6157C6.98423 15.3793 6.91127 14.9119 7.1166 14.5718C7.32195 14.2317 7.72783 14.1477 8.02318 14.3842C9.03633 15.1953 10.4238 15.7029 11.9996 15.7029C13.5754 15.7029 14.9637 15.1952 15.9768 14.3842C16.2722 14.1477 16.6781 14.2317 16.8834 14.5718Z" fill="#7F92A0"/>
</svg>
