<svg width="20" height="22" viewBox="0 0 20 22" fill="none" xmlns="http://www.w3.org/2000/svg">
<path d="M3.3999 1.1H16.5999C17.6999 1.1 18.5999 2 18.5999 3.1V5.3C18.5999 6.1 18.0999 7.1 17.5999 7.6L13.2999 11.4C12.6999 11.9 12.2999 12.9 12.2999 13.7V18C12.2999 18.6 11.8999 19.4 11.3999 19.7L9.9999 20.6C8.6999 21.4 6.8999 20.5 6.8999 18.9V13.6C6.8999 12.9 6.4999 12 6.0999 11.5L2.2999 7.5C1.7999 7 1.3999 6.1 1.3999 5.5V3.2C1.3999 2 2.2999 1.1 3.3999 1.1Z" stroke="#262626" stroke-width="1.5" stroke-miterlimit="10" stroke-linecap="round" stroke-linejoin="round"/>
</svg>
