<svg width="17" height="16" viewBox="0 0 17 16" fill="none" xmlns="http://www.w3.org/2000/svg">
<path d="M4.09993 1.3999H12.8999C13.6333 1.3999 14.2333 1.9999 14.2333 2.73324V4.1999C14.2333 4.73324 13.8999 5.3999 13.5666 5.73324L10.6999 8.26657C10.2999 8.5999 10.0333 9.26657 10.0333 9.7999V12.6666C10.0333 13.0666 9.7666 13.5999 9.43327 13.7999L8.49994 14.3999C7.63327 14.9332 6.43327 14.3332 6.43327 13.2666V9.73324C6.43327 9.26657 6.1666 8.66657 5.89994 8.33324L3.3666 5.66657C3.03327 5.33324 2.7666 4.73324 2.7666 4.33324V2.7999C2.7666 1.9999 3.3666 1.3999 4.09993 1.3999Z" stroke="#262626" stroke-miterlimit="10" stroke-linecap="round" stroke-linejoin="round"/>
</svg>
