<svg width="18" height="19" viewBox="0 0 18 19" fill="none" xmlns="http://www.w3.org/2000/svg">
<path fill-rule="evenodd" clip-rule="evenodd" d="M16.9625 7.53172H11.4462V0.43208C11.4468 0.31767 11.4956 0.208118 11.582 0.127217C11.6683 0.0463158 11.7853 0.000600591 11.9074 0H12.7383C12.7396 1.16446 13.2344 2.28079 14.1138 3.10365C14.9933 3.92651 16.1856 4.38857 17.4285 4.38826V7.53057L16.9625 7.53172ZM17.4237 10.0373C17.4237 12.9979 16.7013 15.1995 15.2567 16.642C13.812 18.0846 11.5849 18.8028 8.57518 18.7967C7.40765 18.875 6.23553 18.7238 5.13407 18.3527C4.0326 17.9817 3.0261 17.399 2.17918 16.642C0.725579 15.204 -0.000812747 13.036 6.82408e-07 10.1379V0.41265C6.82408e-07 0.35846 0.0113934 0.3048 0.0335292 0.254735C0.055665 0.20467 0.0881097 0.15918 0.129011 0.120862C0.169913 0.0825436 0.21847 0.0521484 0.271911 0.0314108C0.325351 0.0106731 0.382629 0 0.440473 0H5.53946C5.65598 0.00089606 5.76746 0.0446581 5.84986 0.121852C5.93226 0.199045 5.97897 0.303486 5.97993 0.41265V10.3505C5.91707 11.3084 6.16414 12.2617 6.68883 13.0859C6.92503 13.3791 7.22953 13.618 7.57916 13.7843C7.92879 13.9506 8.31432 14.04 8.70639 14.0456C9.09846 14.0512 9.48673 13.973 9.84163 13.8168C10.1965 13.6606 10.5087 13.4305 10.7544 13.1442C11.2748 12.344 11.5178 11.4123 11.4498 10.4774V8.61879H17.4285V10.0373H17.4237Z" fill="#1F3E79"/>
</svg>
