<svg width="12" height="20" viewBox="0 0 12 20" fill="none" xmlns="http://www.w3.org/2000/svg">
<path d="M11.2498 13.3862C11.2498 9.925 8.41476 9.5305 6.13701 9.214C3.65451 8.869 2.24976 8.569 2.24976 6.4315C2.24976 4.6375 4.13001 4 5.74026 4C6.54272 3.97408 7.33985 4.13927 8.06592 4.48196C8.56052 4.71541 9.01249 5.02666 9.40531 5.40242C9.70864 5.69257 10.185 5.75406 10.5116 5.49041C10.829 5.23423 10.8856 4.76745 10.6005 4.47584C10.176 4.04179 9.69194 3.66859 9.16174 3.36798C8.41805 2.94632 7.59835 2.67581 6.74976 2.572V1C6.74976 0.585787 6.41397 0.25 5.99976 0.25C5.58555 0.25 5.24976 0.585786 5.24976 1V2.5165C2.53851 2.6815 0.74976 4.2115 0.74976 6.4315C0.74976 9.979 3.62226 10.3787 5.93001 10.699C8.36976 11.0387 9.74976 11.3305 9.74976 13.3862C9.74976 15.6602 7.40001 16 5.99976 16C3.84708 16 2.73531 15.4937 1.83911 14.5972C1.54195 14.2999 1.06817 14.243 0.741102 14.507C0.420876 14.7655 0.360874 15.2355 0.646137 15.5321C1.15415 16.0604 1.7514 16.4977 2.41226 16.8231C3.29468 17.2575 4.26622 17.4803 5.24976 17.4738V19C5.24976 19.4142 5.58555 19.75 5.99976 19.75C6.41397 19.75 6.74976 19.4142 6.74976 19V17.4662C9.54426 17.2382 11.2498 15.721 11.2498 13.3862Z" fill="#7F92A0"/>
</svg>
