<svg width="18" height="18" viewBox="0 0 18 18" fill="none" xmlns="http://www.w3.org/2000/svg">
<path d="M17.6812 9.30902C17.6812 9.68485 17.537 10.0482 17.2676 10.3112C17.0044 10.5806 16.641 10.7309 16.265 10.7309H10.6004V16.3934C10.6004 16.7692 10.45 17.1325 10.1806 17.3956C9.91742 17.6587 9.56025 17.809 9.18429 17.809C8.80832 17.809 8.44488 17.6587 8.18171 17.3956C7.91226 17.1325 7.76187 16.7692 7.76187 16.3934V10.7309H2.0973C1.72133 10.7309 1.35789 10.5806 1.09472 10.3112C0.831539 10.0482 0.681152 9.68485 0.681152 9.30902C0.681152 8.93319 0.831539 8.57615 1.09472 8.30681C1.35789 8.04373 1.72133 7.8934 2.0973 7.8934H7.76187V2.23091C7.76187 1.85508 7.91226 1.49178 8.18171 1.2287C8.44488 0.959353 8.80832 0.809021 9.18429 0.809021C9.56025 0.809021 9.91742 0.959353 10.1806 1.2287C10.45 1.49178 10.6004 1.85508 10.6004 2.23091V7.8934H16.265C16.641 7.8934 17.0044 8.04373 17.2676 8.30681C17.537 8.57615 17.6812 8.93319 17.6812 9.30902Z" fill="#53B175"/>
</svg>
