<svg width="20" height="20" viewBox="0 0 20 20" fill="none" xmlns="http://www.w3.org/2000/svg">
<path fill-rule="evenodd" clip-rule="evenodd" d="M10 1.50018C5.30621 1.50018 1.5 5.3064 1.5 10.0002C1.5 14.694 5.30621 18.5002 10 18.5002C14.6947 18.5002 18.5 14.694 18.5 10.0002C18.5 5.30634 14.6947 1.50018 10 1.50018ZM0 10.0002C0 4.47797 4.47779 0.000183105 10 0.000183105C15.5233 0.000183105 20 4.47802 20 10.0002C20 15.5223 15.5233 20.0002 10 20.0002C4.47779 20.0002 0 15.5224 0 10.0002Z" fill="#7F92A0"/>
<path d="M8.66667 7.99994C8.66667 9.10394 8.06933 9.99994 7.33333 9.99994C6.59733 9.99994 6 9.10394 6 7.99994C6 6.89594 6.59733 5.99994 7.33333 5.99994C8.06933 5.99994 8.66667 6.89594 8.66667 7.99994ZM14 7.99994C14 9.10394 13.4027 9.99994 12.6667 9.99994C11.9307 9.99994 11.3333 9.10394 11.3333 7.99994C11.3333 6.89594 11.9307 5.99994 12.6667 5.99994C13.4027 5.99994 14 6.89594 14 7.99994Z" fill="#7F92A0"/>
<path fill-rule="evenodd" clip-rule="evenodd" d="M14.8834 12.5718C15.0887 12.9119 15.0158 13.3793 14.7204 13.6157C13.4652 14.6207 11.8106 15.2029 9.99957 15.2029C8.18845 15.2029 6.53474 14.6206 5.27957 13.6157C4.98423 13.3793 4.91127 12.9119 5.1166 12.5718C5.32195 12.2317 5.72783 12.1477 6.02318 12.3842C7.03633 13.1953 8.42384 13.7029 9.99957 13.7029C11.5754 13.7029 12.9637 13.1952 13.9768 12.3842C14.2722 12.1477 14.6781 12.2317 14.8834 12.5718Z" fill="#7F92A0"/>
</svg>
