<svg width="20" height="20" viewBox="0 0 20 20" fill="none" xmlns="http://www.w3.org/2000/svg">
<path d="M19.3327 9.99984C19.3327 10.8055 18.5713 11.4998 18.3727 12.2438C18.1673 13.0128 18.4727 13.9942 18.0833 14.6675C17.6883 15.3505 16.6817 15.5738 16.1277 16.1282C15.5737 16.6825 15.3497 17.6888 14.666 18.0838C13.9927 18.4735 13.0113 18.1678 12.2423 18.3732C11.4993 18.5718 10.805 19.3332 9.99935 19.3332C9.19368 19.3332 8.49935 18.5718 7.75535 18.3732C6.98635 18.1678 6.00501 18.4732 5.33168 18.0838C4.64868 17.6888 4.42535 16.6822 3.87102 16.1282C3.31668 15.5742 2.31035 15.3502 1.91535 14.6665C1.52568 13.9932 1.83135 13.0118 1.62602 12.2428C1.42735 11.4998 0.666016 10.8055 0.666016 9.99984C0.666016 9.19417 1.42735 8.49984 1.62602 7.75584C1.83135 6.98684 1.52602 6.0055 1.91535 5.33217C2.31035 4.64917 3.31535 4.42584 3.87102 3.8715C4.42668 3.31717 4.64901 2.31084 5.33268 1.91584C6.00601 1.52617 6.98735 1.83184 7.75635 1.6265C8.49935 1.42784 9.19368 0.666504 9.99935 0.666504C10.805 0.666504 11.4993 1.42784 12.2433 1.6265C13.0123 1.83184 13.9937 1.5265 14.667 1.91584C15.35 2.31084 15.5733 3.31584 16.1277 3.8715C16.682 4.42717 17.6883 4.6495 18.0833 5.33317C18.473 6.0065 18.1673 6.98784 18.3727 7.75684C18.5713 8.49984 19.3327 9.19417 19.3327 9.99984Z" fill="#1DA1F2"/>
<path d="M10 20C9.41333 20 8.97867 19.52 8.55833 19.0553C8.34754 18.7688 8.07296 18.5353 7.75633 18.3733C7.38633 18.3511 7.01629 18.4165 6.67633 18.5643C6.09133 18.751 5.48733 18.944 4.99833 18.661C4.502 18.374 4.367 17.748 4.23633 17.1427C4.19613 16.7806 4.07121 16.4331 3.87167 16.1283C3.56671 15.9286 3.219 15.8035 2.85667 15.7633C2.25167 15.6327 1.626 15.4967 1.339 15.0017C1.056 14.5123 1.249 13.9083 1.43567 13.3237C1.58358 12.9839 1.64904 12.6139 1.62667 12.244C1.46475 11.9272 1.23125 11.6525 0.944667 11.4417C0.48 11.0213 0 10.5867 0 10C0 9.41333 0.48 8.97867 0.944667 8.55833C1.23117 8.34754 1.46467 8.07296 1.62667 7.75633C1.64913 7.38629 1.58367 7.01621 1.43567 6.67633C1.249 6.09167 1.056 5.48733 1.339 4.99833C1.626 4.502 2.252 4.367 2.85733 4.23633C3.21937 4.19613 3.56687 4.07121 3.87167 3.87167C4.072 3.56687 4.19763 3.21913 4.23833 2.85667C4.369 2.25167 4.505 1.626 5 1.339C5.48967 1.05567 6.094 1.24933 6.678 1.43567C7.01788 1.58338 7.38775 1.64879 7.75767 1.62667C8.07446 1.46475 8.34917 1.23125 8.56 0.944667C8.97867 0.48 9.41333 0 10 0C10.5867 0 11.0213 0.48 11.4417 0.944667C11.6525 1.23117 11.927 1.46467 12.2437 1.62667C12.6137 1.64888 12.9837 1.58346 13.3237 1.43567C13.9087 1.249 14.5127 1.056 15.0017 1.339C15.498 1.626 15.633 2.252 15.7637 2.85733C15.8039 3.21937 15.9288 3.56687 16.1283 3.87167C16.4331 4.072 16.7809 4.19763 17.1433 4.23833C17.7483 4.369 18.374 4.505 18.661 5C18.944 5.48933 18.751 6.09333 18.5643 6.678C18.4164 7.01779 18.351 7.38775 18.3733 7.75767C18.5352 8.07446 18.7688 8.34917 19.0553 8.56C19.52 8.97867 20 9.41333 20 10C20 10.5867 19.52 11.0213 19.0553 11.4417C18.7688 11.6525 18.5353 11.927 18.3733 12.2437C18.3509 12.6137 18.4163 12.9838 18.5643 13.3237C18.751 13.9083 18.944 14.5127 18.661 15.0017C18.374 15.498 17.748 15.633 17.1427 15.7637C16.7806 15.8039 16.4331 15.9288 16.1283 16.1283C15.9286 16.4333 15.8035 16.781 15.7633 17.1433C15.6327 17.7483 15.4967 18.374 15.0017 18.661C14.5117 18.9443 13.908 18.751 13.3237 18.5643C12.9838 18.4166 12.6139 18.3512 12.244 18.3733C11.9272 18.5352 11.6525 18.7688 11.4417 19.0553C11.0213 19.52 10.5867 20 10 20ZM7.59033 17.6873C7.70433 17.6866 7.81796 17.7008 7.92833 17.7293C8.37671 17.9132 8.76567 18.2173 9.05233 18.608C9.37533 18.9647 9.709 19.3333 10 19.3333C10.291 19.3333 10.6247 18.9647 10.9477 18.608C11.2343 18.2171 11.6234 17.913 12.072 17.7293C12.566 17.6612 13.0691 17.7304 13.5263 17.9293C13.9723 18.0717 14.4337 18.219 14.668 18.084C14.9083 17.945 15.0117 17.4657 15.1117 17.0027C15.1659 16.5124 15.3547 16.0467 15.657 15.657C15.981 15.3323 16.5 15.2203 17.002 15.112C17.4653 15.012 17.9447 14.9087 18.0843 14.6677C18.2177 14.4343 18.072 13.9727 17.9293 13.5263C17.73 13.0691 17.6608 12.5657 17.7293 12.0717C17.9132 11.6233 18.2173 11.2343 18.608 10.9477C18.9647 10.6247 19.3333 10.291 19.3333 10C19.3333 9.709 18.9647 9.37533 18.608 9.05233C18.2171 8.76567 17.913 8.37658 17.7293 7.928C17.6608 7.43404 17.73 6.93079 17.9293 6.47367C18.072 6.02733 18.219 5.56567 18.084 5.332C17.945 5.09167 17.4657 4.98833 17.0027 4.88833C16.5124 4.83408 16.0467 4.64533 15.657 4.343C15.3323 4.019 15.2203 3.5 15.112 2.998C15.012 2.53467 14.9087 2.05533 14.6677 1.91567C14.4343 1.78233 13.9733 1.928 13.5263 2.07067C13.069 2.26979 12.5657 2.339 12.0717 2.27067C11.6233 2.08679 11.2343 1.78275 10.9477 1.392C10.6247 1.03533 10.291 0.666667 10 0.666667C9.709 0.666667 9.37533 1.03533 9.05233 1.392C8.76567 1.78288 8.37658 2.08696 7.928 2.27067C7.47867 2.39133 6.96733 2.22867 6.47367 2.07067C6.02733 1.928 5.56667 1.78 5.33333 1.916C5.093 2.055 4.98967 2.53433 4.88967 2.99733C4.83542 3.48758 4.64667 3.95329 4.34433 4.343C4.02033 4.66767 3.50133 4.77967 2.99933 4.888C2.536 4.988 2.05667 5.09133 1.917 5.33233C1.78367 5.56567 1.92933 6.02733 2.072 6.47367C2.27133 6.93087 2.34054 7.43429 2.272 7.92833C2.08812 8.37671 1.78408 8.76567 1.39333 9.05233C1.03533 9.37533 0.666667 9.709 0.666667 10C0.666667 10.291 1.03533 10.6247 1.392 10.9477C1.78288 11.2343 2.08696 11.6234 2.27067 12.072C2.33917 12.566 2.26996 13.0692 2.07067 13.5263C1.928 13.9727 1.781 14.4333 1.916 14.6667C2.055 14.907 2.53433 15.0103 2.99733 15.1103C3.48758 15.1646 3.95329 15.3533 4.343 15.6557C4.66767 15.9797 4.77967 16.4987 4.888 17.0007C4.988 17.464 5.09133 17.9433 5.33233 18.083C5.56567 18.2163 6.02633 18.0707 6.47367 17.928C6.83183 17.7927 7.20821 17.7115 7.59033 17.6873Z" fill="#1DA1F2"/>
<path fill-rule="evenodd" clip-rule="evenodd" d="M8.88783 13.1249C8.74408 13.1249 8.60658 13.0656 8.50814 12.9609L5.97533 10.2635C5.77793 10.0541 5.78887 9.72441 5.99825 9.52754C6.20814 9.33066 6.53783 9.34108 6.73418 9.55045L8.88262 11.8374L13.2618 7.04472C13.4566 6.8317 13.7857 6.81764 13.9982 7.01139C14.2102 7.20514 14.2248 7.53483 14.0311 7.74681L9.2722 12.9551C9.17481 13.0624 9.03627 13.1239 8.89148 13.1249H8.88783Z" fill="white"/>
<mask id="mask0_247_12656" style="mask-type:alpha" maskUnits="userSpaceOnUse" x="5" y="6" width="10" height="8">
<path fill-rule="evenodd" clip-rule="evenodd" d="M8.88783 13.1249C8.74408 13.1249 8.60658 13.0656 8.50814 12.9609L5.97533 10.2635C5.77793 10.0541 5.78887 9.72441 5.99825 9.52754C6.20814 9.33066 6.53783 9.34108 6.73418 9.55045L8.88262 11.8374L13.2618 7.04472C13.4566 6.8317 13.7857 6.81764 13.9982 7.01139C14.2102 7.20514 14.2248 7.53483 14.0311 7.74681L9.2722 12.9551C9.17481 13.0624 9.03627 13.1239 8.89148 13.1249H8.88783Z" fill="white"/>
</mask>
<g mask="url(#mask0_247_12656)">
</g>
</svg>
