<svg width="89" height="100" viewBox="0 0 89 100" fill="none" xmlns="http://www.w3.org/2000/svg">
<path fill-rule="evenodd" clip-rule="evenodd" d="M88.8 52.6236C88.8 41.7894 85.4037 31.7856 79.7941 23.2918C70.3302 9.21102 54.0356 0 35.5276 0C31.3681 0 27.5139 0.453001 23.6978 1.32125C14.6537 3.20876 6.63997 7.47452 0 13.3258V76.1419C10.4942 76.1419 19.5001 69.3469 22.553 59.8717C22.324 59.4187 22.0187 59.0034 21.599 58.6637L9.88363 48.5844C7.25054 46.3194 8.66249 42.0914 12.1733 41.7894L27.7047 40.3549C29.193 40.2039 30.4523 39.3356 31.0247 38.0143L37.2449 24.0468C38.6186 20.8758 43.1979 20.8758 44.6099 24.0468L50.7919 38.0143C51.4025 39.3356 52.6618 40.2039 54.1119 40.3549L69.6815 41.7894C73.1923 42.0914 74.6042 46.3194 71.9711 48.5844L60.2176 58.6637C59.111 59.6074 58.653 61.0419 58.9583 62.4387L62.3928 77.3122C63.156 80.6342 59.4544 83.2767 56.4015 81.5402L42.969 73.7637C41.7097 73.0464 38.6568 72.7822 37.1304 73.1974L34.3447 74.0279L31.2155 75.0472L27.9336 76.3684C18.1263 80.2567 4.15952 90.9022 0.91586 100H59.3399C67.6208 95.8852 74.6805 89.6565 79.7941 81.9932C85.5563 73.6504 88.8 63.6844 88.8 52.7746C88.8 52.7746 88.8 52.7746 88.8 52.6236Z" fill="white"/>
</svg>
