<svg width="15" height="12" viewBox="0 0 15 12" fill="none" xmlns="http://www.w3.org/2000/svg">
<path d="M2.33286 6.78652V8.65986C2.33286 9.14652 2.59953 9.59986 3.0262 9.83319L6.35953 11.6532C6.75953 11.8732 7.23953 11.8732 7.63953 11.6532L10.9729 9.83319C11.3995 9.59986 11.6662 9.14652 11.6662 8.65986V6.78652L7.63953 8.98652C7.23953 9.20652 6.75953 9.20652 6.35953 8.98652L2.33286 6.78652ZM6.35953 0.346523L0.739531 3.41319C0.279531 3.66652 0.279531 4.33319 0.739531 4.58652L6.35953 7.65319C6.75953 7.87319 7.23953 7.87319 7.63953 7.65319L12.9995 4.72652V8.66652C12.9995 9.03319 13.2995 9.33319 13.6662 9.33319C14.0329 9.33319 14.3329 9.03319 14.3329 8.66652V4.39319C14.3329 4.14652 14.1995 3.92652 13.9862 3.80652L7.63953 0.346523C7.23953 0.13319 6.75953 0.13319 6.35953 0.346523Z" fill="#FD9644"/>
</svg>
