<svg width="8" height="14" viewBox="0 0 8 14" fill="none" xmlns="http://www.w3.org/2000/svg">
<path d="M7.33268 5.9535V1.00016C7.33268 0.633496 7.03268 0.333496 6.66602 0.333496H1.33268C0.966016 0.333496 0.666016 0.633496 0.666016 1.00016V5.9535C0.666016 6.18683 0.786015 6.40683 0.992682 6.52683L3.77935 8.20016L3.11935 9.76016L1.63935 9.88683C1.33268 9.9135 1.21268 10.2802 1.43935 10.4735L2.56602 11.4468L2.22602 12.9002C2.15935 13.1868 2.47268 13.4135 2.72602 13.2602L3.99935 12.4868L5.27268 13.2535C5.52602 13.4068 5.83935 13.1802 5.77268 12.8935L5.43268 11.4402L6.55935 10.4668C6.77935 10.2735 6.66602 9.90683 6.36602 9.88016L4.88602 9.7535L4.22602 8.1935L7.01268 6.52016C7.21268 6.40683 7.33268 6.1935 7.33268 5.9535ZM4.66602 7.1535L3.99935 7.5535L3.33268 7.1535V1.00016H4.66602V7.1535Z" fill="#706FD3"/>
</svg>
