<svg width="492" height="444" viewBox="0 0 492 444" fill="none" xmlns="http://www.w3.org/2000/svg">
<rect width="492" height="444" rx="24" fill="#E9EAF2"/>
<path opacity="0.7" d="M221.395 156.508C221.4 150.026 219.479 143.688 215.878 138.297C212.276 132.905 207.154 128.702 201.16 126.218C195.166 123.735 188.57 123.083 182.205 124.345C175.84 125.607 169.993 128.726 165.403 133.308C160.813 137.889 157.686 143.728 156.419 150.085C155.151 156.442 155.8 163.032 158.282 169.021C160.764 175.009 164.969 180.128 170.364 183.73C175.759 187.331 182.102 189.254 188.591 189.254C197.288 189.254 205.628 185.805 211.779 179.664C217.931 173.524 221.39 165.195 221.395 156.508V156.508Z" fill="#A0A3BD"/>
<path opacity="0.7" d="M143.223 318.087C143.567 318.741 144.081 319.29 144.711 319.676C145.342 320.063 146.065 320.272 146.804 320.282H345.168C345.902 320.287 346.625 320.093 347.259 319.722C347.893 319.351 348.415 318.816 348.77 318.174C349.126 317.531 349.301 316.805 349.278 316.071C349.255 315.338 349.034 314.624 348.639 314.005L277.538 200.359C276.798 199.185 275.772 198.217 274.555 197.547C273.339 196.876 271.973 196.524 270.584 196.524C269.194 196.524 267.828 196.876 266.612 197.547C265.396 198.217 264.369 199.185 263.629 200.359L223.86 264.008C223.487 264.593 222.972 265.074 222.363 265.407C221.755 265.74 221.072 265.915 220.377 265.915C219.683 265.915 219 265.74 218.392 265.407C217.783 265.074 217.268 264.593 216.895 264.008L202.745 241.27C202.009 240.091 200.984 239.118 199.767 238.444C198.551 237.769 197.182 237.415 195.791 237.415C194.399 237.415 193.031 237.769 191.814 238.444C190.598 239.118 189.573 240.091 188.837 241.27L143.333 313.961C142.951 314.578 142.74 315.285 142.721 316.009C142.701 316.734 142.875 317.451 143.223 318.087Z" fill="#A0A3BD"/>
</svg>
