<svg width="16" height="10" viewBox="0 0 16 10" fill="none" xmlns="http://www.w3.org/2000/svg">
<path fill-rule="evenodd" clip-rule="evenodd" d="M9.29789 5.09063L9.01259 5.43449L11.658 7.62986C11.5208 8.17315 11.0208 8.47031 10.5507 8.08031L7.79815 5.79681L7.51342 6.13898L10.1747 8.3481C10.0462 8.89647 9.53724 9.2038 9.06513 8.81192L6.31291 6.52879L6.0278 6.87077L8.82371 9.19175C8.69641 9.73522 8.18796 10.0702 7.71811 9.66159L0.510742 3.39843L2.7144 0.259035L3.77405 0.735283L6.95017 0.616268L7.36898 1.07143L5.91199 2.63406C5.02578 3.5843 5.95549 4.1257 6.92569 3.89784C7.56181 3.7487 8.11452 3.40596 8.61901 3.00203C10.0131 4.05377 11.4232 5.08215 12.8066 6.1482C13.6694 6.81333 12.7892 7.98766 12.051 7.37507L9.29789 5.09063ZM8.59773 2.43012C8.06009 2.89864 7.48008 3.33742 6.76411 3.47997C6.32402 3.56773 5.69147 3.52328 6.23758 2.93744L8.3678 0.652613L12.2006 0.676529L13.1171 0.100098L15.4324 3.22179L12.8909 5.65407L8.59773 2.43012Z" fill="#FD9644"/>
</svg>
