<svg width="21" height="24" viewBox="0 0 21 24" fill="none" xmlns="http://www.w3.org/2000/svg">
<path fill-rule="evenodd" clip-rule="evenodd" d="M20.9393 12.6297C20.9393 10.0294 20.1385 7.62854 18.8157 5.59003C16.5841 2.21065 12.7418 0 8.37753 0C7.3967 0 6.48786 0.10872 5.58802 0.317101C3.45539 0.770102 1.56572 1.79388 0 3.19819V18.2741C2.47456 18.2741 4.59819 16.6433 5.31806 14.3692C5.26407 14.2605 5.19209 14.1608 5.0931 14.0793L2.33059 11.6602C1.7097 11.1166 2.04264 10.1019 2.8705 10.0294L6.53285 9.68516C6.88379 9.64892 7.18074 9.44054 7.31571 9.12344L8.78245 5.77123C9.1064 5.01019 10.1862 5.01019 10.5191 5.77123L11.9769 9.12344C12.1209 9.44054 12.4178 9.64892 12.7598 9.68516L16.4311 10.0294C17.259 10.1019 17.5919 11.1166 16.971 11.6602L14.1995 14.0793C13.9385 14.3058 13.8306 14.6501 13.9026 14.9853L14.7124 18.5549C14.8924 19.3522 14.0195 19.9864 13.2997 19.5696L10.1322 17.7033C9.83527 17.5311 9.1154 17.4677 8.75546 17.5674L8.09858 17.7667L7.36071 18.0113L6.58684 18.3284C4.27425 19.2616 0.980828 21.8165 0.215962 24H13.9925C15.9452 23.0125 17.6099 21.5176 18.8157 19.6784C20.1745 17.6761 20.9393 15.2843 20.9393 12.6659C20.9393 12.6659 20.9393 12.6659 20.9393 12.6297Z" fill="#1DA1F2"/>
</svg>
