<svg width="132" height="150" viewBox="0 0 132 150" fill="none" xmlns="http://www.w3.org/2000/svg">
<path fill-rule="evenodd" clip-rule="evenodd" d="M131.628 78.9354C131.628 62.684 126.623 47.6784 118.355 34.9377C104.408 13.8165 80.3933 0 53.1169 0C46.9867 0 41.3064 0.679502 35.6824 1.98188C22.3535 4.81314 10.5431 11.2118 0.757324 19.9887V114.213C16.2234 114.213 29.496 104.02 33.9952 89.8075C33.6578 89.128 33.2079 88.5051 32.5892 87.9955L15.3235 72.8766C11.4429 69.479 13.5238 63.137 18.6979 62.684L41.5876 60.5323C43.781 60.3058 45.6369 59.0034 46.4805 57.0215L55.6477 36.0702C57.6723 31.3137 64.4211 31.3137 66.502 36.0702L75.6129 57.0215C76.5127 59.0034 78.3687 60.3058 80.5058 60.5323L103.452 62.684C108.626 63.137 110.707 69.479 106.826 72.8766L89.5042 87.9955C87.8732 89.4111 87.1984 91.5629 87.6483 93.658L92.7099 115.968C93.8347 120.951 88.3794 124.915 83.8802 122.31L64.0837 110.646C62.2278 109.57 57.7285 109.173 55.4789 109.796L51.3734 111.042L46.7617 112.571L41.9251 114.553C27.4714 120.385 6.8875 136.353 2.10709 150H88.2107C100.415 143.828 110.819 134.485 118.355 122.99C126.848 110.476 131.628 95.5266 131.628 79.1619C131.628 79.1619 131.628 79.1619 131.628 78.9354Z" fill="white"/>
</svg>
