<svg width="16" height="16" viewBox="0 0 16 16" fill="none" xmlns="http://www.w3.org/2000/svg">
<path d="M14 3.98665C11.78 3.76665 9.54667 3.65332 7.32 3.65332C6 3.65332 4.68 3.71999 3.36 3.85332L2 3.98665" stroke="#7F92A0" stroke-linecap="round" stroke-linejoin="round"/>
<path d="M5.6665 3.31334L5.81317 2.44001C5.91984 1.80668 5.99984 1.33334 7.1265 1.33334H8.87317C9.99984 1.33334 10.0865 1.83334 10.1865 2.44668L10.3332 3.31334" stroke="#7F92A0" stroke-linecap="round" stroke-linejoin="round"/>
<path d="M12.5669 6.09335L12.1336 12.8067C12.0603 13.8534 12.0003 14.6667 10.1403 14.6667H5.86026C4.00026 14.6667 3.94026 13.8534 3.86693 12.8067L3.43359 6.09335" stroke="#7F92A0" stroke-linecap="round" stroke-linejoin="round"/>
<path d="M6.88672 11H9.10672" stroke="#7F92A0" stroke-linecap="round" stroke-linejoin="round"/>
<path d="M6.3335 8.33334H9.66683" stroke="#7F92A0" stroke-linecap="round" stroke-linejoin="round"/>
</svg>
